<?xml version="1.0" standalone="no"?>
<!DOCTYPE svg PUBLIC "-//W3C//DTD SVG 20010904//EN"
 "http://www.w3.org/TR/2001/REC-SVG-20010904/DTD/svg10.dtd">
<svg version="1.0" xmlns="http://www.w3.org/2000/svg"
 width="1000.000000pt" height="1000.000000pt" viewBox="0 0 1000.000000 1000.000000"
 preserveAspectRatio="xMidYMid meet">
<metadata>
Created by potrace 1.11, written by Peter Selinger 2001-2013
</metadata>
<g transform="translate(0.000000,1000.000000) scale(0.100000,-0.100000)"
fill="#000000" stroke="none">
<path d="M4050 9247 c-14 -6 -43 -18 -65 -26 -33 -11 -250 -94 -330 -126 -11
-4 -24 -9 -30 -11 -16 -5 -428 -164 -450 -174 -11 -5 -166 -65 -345 -133 -303
-116 -331 -124 -415 -131 -219 -15 -439 -93 -623 -219 -167 -115 -360 -340
-425 -497 -8 -19 -24 -56 -35 -81 -46 -102 -111 -329 -127 -439 -21 -152 -26
-195 -31 -279 -3 -53 -9 -111 -14 -130 -6 -21 -6 -51 0 -75 5 -23 11 -88 14
-146 3 -72 14 -146 36 -235 17 -71 34 -140 36 -153 3 -13 25 -109 49 -215 24
-106 47 -211 51 -232 3 -22 8 -43 9 -46 2 -3 11 -39 20 -80 44 -206 67 -316
71 -339 2 -14 7 -38 11 -55 4 -16 8 -34 9 -40 1 -5 11 -57 23 -115 20 -104 29
-151 36 -200 2 -14 7 -43 11 -65 3 -22 8 -49 9 -60 1 -11 3 -367 4 -791 l1
-771 168 -139 c92 -76 175 -146 185 -154 10 -8 28 -23 40 -34 12 -10 42 -35
67 -55 25 -20 47 -38 50 -41 3 -3 28 -24 55 -45 28 -22 52 -42 55 -45 3 -3 57
-48 120 -100 63 -52 126 -104 140 -116 32 -27 155 -129 205 -169 20 -16 45
-37 54 -46 9 -8 93 -78 186 -154 94 -77 181 -149 195 -161 14 -12 59 -49 100
-83 41 -34 87 -72 101 -84 14 -12 46 -38 70 -58 24 -20 100 -83 170 -140 69
-57 144 -120 168 -139 24 -19 48 -40 55 -45 6 -6 90 -75 186 -154 96 -79 180
-149 185 -155 6 -7 19 -18 31 -26 12 -8 45 -35 74 -60 77 -65 135 -113 156
-130 137 -111 259 -218 298 -261 27 -30 75 -100 108 -156 33 -57 62 -103 63
-103 2 0 29 37 61 83 60 85 216 247 239 247 7 0 15 4 17 8 2 4 39 32 83 62
142 96 494 337 675 461 96 66 207 141 245 167 39 26 72 49 75 52 3 3 50 35
105 72 55 37 152 103 215 147 63 44 178 122 255 174 77 53 187 128 245 168 58
39 188 128 290 197 102 69 187 128 190 131 3 4 43 32 90 63 47 31 148 100 225
153 77 53 203 139 280 191 77 53 192 131 255 174 l115 78 0 934 1 933 32 105
c18 58 38 119 45 135 6 17 12 35 13 40 2 14 21 76 109 350 42 132 78 247 80
255 9 36 88 286 94 300 4 8 18 51 30 95 l23 80 92 1 c63 0 90 3 89 11 -2 7
-27 63 -57 125 -65 136 -122 257 -169 358 -19 41 -57 122 -84 180 -53 110
-100 209 -165 349 -21 46 -37 85 -35 87 4 4 563 -186 632 -215 59 -25 75 -30
75 -23 -1 16 -137 255 -174 304 -58 79 -228 230 -446 399 -56 44 -277 202
-302 217 -16 9 -28 20 -28 24 0 4 -6 8 -13 8 -8 0 -22 9 -32 20 -10 11 -24 20
-31 20 -7 0 -14 3 -16 8 -1 4 -46 35 -98 69 -58 39 -102 75 -114 95 -10 18
-30 53 -44 78 -14 25 -36 61 -49 80 -12 19 -23 38 -23 43 0 5 -13 27 -28 50
-16 23 -72 118 -127 210 -54 93 -103 171 -110 174 -7 2 -32 -1 -56 -7 -24 -7
-51 -14 -59 -15 -8 -2 -58 -13 -110 -25 -52 -12 -104 -23 -115 -25 -11 -3 -38
-9 -60 -14 -22 -6 -83 -20 -135 -32 -52 -12 -131 -30 -175 -40 -44 -11 -89
-21 -100 -24 -36 -7 -209 -45 -230 -50 -11 -2 -56 -13 -101 -24 -44 -11 -91
-22 -105 -25 -24 -5 -65 -15 -84 -20 -61 -17 -105 -16 -146 2 -125 56 -521
222 -543 228 -14 3 -26 10 -26 15 0 5 -5 9 -11 9 -5 0 -74 27 -152 60 -79 33
-150 60 -158 60 -9 0 -40 -8 -70 -19 -30 -10 -57 -19 -61 -20 -8 -2 -11 -3
-73 -22 -22 -7 -44 -14 -50 -15 -19 -4 -380 -115 -434 -134 -55 -19 -76 -16
-107 14 -6 6 -23 20 -38 31 -16 11 -33 25 -40 30 -6 6 -51 41 -101 79 -49 38
-94 74 -100 80 -15 16 -123 96 -137 101 -7 3 -24 -1 -38 -8z m335 -3847 c8
-13 -5 -13 -25 0 -13 8 -13 10 2 10 9 0 20 -4 23 -10z"/>
</g>
</svg>
